<mxfile host="drawio-plugin" modified="2024-03-24T16:14:21.415Z" agent="5.0 (Windows NT 10.0; Win64; x64) AppleWebKit/537.36 (KHTML, like Gecko) Chrome/111.0.0.0 Safari/537.36" etag="KgcLoQrCybhFXpj39wM1" version="20.5.3" type="embed"><diagram id="yxwqODcV9XcFq13wuEIJ" name="Page-1"><mxGraphModel dx="732" dy="768" grid="1" gridSize="10" guides="1" tooltips="1" connect="1" arrows="1" fold="1" page="1" pageScale="1" pageWidth="850" pageHeight="1100" math="0" shadow="0"><root><mxCell id="0"/><mxCell id="1" parent="0"/><mxCell id="10" value="Custom user" style="swimlane;fontStyle=0;childLayout=stackLayout;horizontal=1;startSize=26;fillColor=none;horizontalStack=0;resizeParent=1;resizeParentMax=0;resizeLast=0;collapsible=1;marginBottom=0;" parent="1" vertex="1"><mxGeometry x="680" y="500" width="140" height="23" as="geometry"/></mxCell><mxCell id="15" value="Ticket" style="swimlane;fontStyle=0;childLayout=stackLayout;horizontal=1;startSize=26;fillColor=none;horizontalStack=0;resizeParent=1;resizeParentMax=0;resizeLast=0;collapsible=1;marginBottom=0;" parent="1" vertex="1"><mxGeometry x="425" y="240" width="170" height="140" as="geometry"/></mxCell><mxCell id="16" value="PK: int&#10;seat_class: str" style="text;strokeColor=none;fillColor=none;align=left;verticalAlign=top;spacingLeft=4;spacingRight=4;overflow=hidden;rotatable=0;points=[[0,0.5],[1,0.5]];portConstraint=eastwest;" parent="15" vertex="1"><mxGeometry y="26" width="170" height="34" as="geometry"/></mxCell><mxCell id="18" value="luggage: bool&#10;lunch: bool&#10;order_id: int&#10;flight_id: int" style="text;strokeColor=none;fillColor=none;align=left;verticalAlign=top;spacingLeft=4;spacingRight=4;overflow=hidden;rotatable=0;points=[[0,0.5],[1,0.5]];portConstraint=eastwest;" parent="15" vertex="1"><mxGeometry y="60" width="170" height="80" as="geometry"/></mxCell><mxCell id="24" value="Airplane" style="swimlane;fontStyle=0;childLayout=stackLayout;horizontal=1;startSize=26;fillColor=none;horizontalStack=0;resizeParent=1;resizeParentMax=0;resizeLast=0;collapsible=1;marginBottom=0;fontFamily=Helvetica;fontSize=12;fontColor=default;" parent="1" vertex="1"><mxGeometry x="80" y="480" width="140" height="108" as="geometry"/></mxCell><mxCell id="26" value="PK: int" style="text;strokeColor=none;fillColor=none;align=left;verticalAlign=top;spacingLeft=4;spacingRight=4;overflow=hidden;rotatable=0;points=[[0,0.5],[1,0.5]];portConstraint=eastwest;fontFamily=Helvetica;fontSize=12;fontColor=default;" parent="24" vertex="1"><mxGeometry y="26" width="140" height="34" as="geometry"/></mxCell><mxCell id="25" value="economy seats: int&#10;business sites: int" style="text;strokeColor=none;fillColor=none;align=left;verticalAlign=top;spacingLeft=4;spacingRight=4;overflow=hidden;rotatable=0;points=[[0,0.5],[1,0.5]];portConstraint=eastwest;fontFamily=Helvetica;fontSize=12;fontColor=default;" parent="24" vertex="1"><mxGeometry y="60" width="140" height="48" as="geometry"/></mxCell><mxCell id="29" value="Flight" style="swimlane;fontStyle=0;childLayout=stackLayout;horizontal=1;startSize=26;fillColor=none;horizontalStack=0;resizeParent=1;resizeParentMax=0;resizeLast=0;collapsible=1;marginBottom=0;fontFamily=Helvetica;fontSize=12;fontColor=default;" parent="1" vertex="1"><mxGeometry x="80" y="190" width="180" height="190" as="geometry"/></mxCell><mxCell id="30" value="PK: int&#10;date-time of departure: str&#10;date-time of arrival: str" style="text;strokeColor=none;fillColor=none;align=left;verticalAlign=top;spacingLeft=4;spacingRight=4;overflow=hidden;rotatable=0;points=[[0,0.5],[1,0.5]];portConstraint=eastwest;fontFamily=Helvetica;fontSize=12;fontColor=default;" parent="29" vertex="1"><mxGeometry y="26" width="180" height="54" as="geometry"/></mxCell><mxCell id="31" value="place of departure: str&#10;place of arrival: str&#10;lunch: bool&#10;luggage: bool&#10;available_economy_seats: int&#10;available_business_seats: int&#10;airpline_id: int" style="text;strokeColor=none;fillColor=none;align=left;verticalAlign=top;spacingLeft=4;spacingRight=4;overflow=hidden;rotatable=0;points=[[0,0.5],[1,0.5]];portConstraint=eastwest;fontFamily=Helvetica;fontSize=12;fontColor=default;" parent="29" vertex="1"><mxGeometry y="80" width="180" height="110" as="geometry"/></mxCell><mxCell id="38" value="Order" style="swimlane;fontStyle=0;childLayout=stackLayout;horizontal=1;startSize=26;fillColor=none;horizontalStack=0;resizeParent=1;resizeParentMax=0;resizeLast=0;collapsible=1;marginBottom=0;" parent="1" vertex="1"><mxGeometry x="425" y="470" width="170" height="150" as="geometry"/></mxCell><mxCell id="39" value="PK: int&#10;departure_place: str&#10;arrival_place: str&#10;departure_time: str&#10;number_of_tickets: int&#10;user_id: int&#10;flight_id: int" style="text;strokeColor=none;fillColor=none;align=left;verticalAlign=top;spacingLeft=4;spacingRight=4;overflow=hidden;rotatable=0;points=[[0,0.5],[1,0.5]];portConstraint=eastwest;" parent="38" vertex="1"><mxGeometry y="26" width="170" height="124" as="geometry"/></mxCell><mxCell id="40" value="" style="endArrow=open;endFill=1;endSize=12;html=1;rounded=0;entryX=0.5;entryY=0;entryDx=0;entryDy=0;exitX=0.483;exitY=0.988;exitDx=0;exitDy=0;exitPerimeter=0;" parent="1" source="31" target="24" edge="1"><mxGeometry width="160" relative="1" as="geometry"><mxPoint x="340" y="390" as="sourcePoint"/><mxPoint x="500" y="390" as="targetPoint"/></mxGeometry></mxCell><mxCell id="41" value="" style="endArrow=open;endFill=1;endSize=12;html=1;rounded=0;entryX=1.017;entryY=1.037;entryDx=0;entryDy=0;entryPerimeter=0;exitX=-0.018;exitY=0;exitDx=0;exitDy=0;exitPerimeter=0;" parent="1" source="18" target="30" edge="1"><mxGeometry width="160" relative="1" as="geometry"><mxPoint x="340" y="390" as="sourcePoint"/><mxPoint x="500" y="390" as="targetPoint"/></mxGeometry></mxCell><mxCell id="42" value="" style="endArrow=diamondThin;endFill=1;endSize=24;html=1;rounded=0;entryX=1.018;entryY=0.167;entryDx=0;entryDy=0;entryPerimeter=0;exitX=0;exitY=0.5;exitDx=0;exitDy=0;" parent="1" source="10" target="39" edge="1"><mxGeometry width="160" relative="1" as="geometry"><mxPoint x="340" y="390" as="sourcePoint"/><mxPoint x="500" y="390" as="targetPoint"/></mxGeometry></mxCell><mxCell id="43" value="" style="endArrow=block;startArrow=block;endFill=1;startFill=1;html=1;rounded=0;entryX=0.5;entryY=0;entryDx=0;entryDy=0;exitX=0.524;exitY=1;exitDx=0;exitDy=0;exitPerimeter=0;" parent="1" source="18" target="38" edge="1"><mxGeometry width="160" relative="1" as="geometry"><mxPoint x="340" y="390" as="sourcePoint"/><mxPoint x="500" y="390" as="targetPoint"/></mxGeometry></mxCell></root></mxGraphModel></diagram></mxfile>